<svg xmlns:dc="http://purl.org/dc/elements/1.1/" xmlns:cc="http://creativecommons.org/ns#" xmlns:rdf="http://www.w3.org/1999/02/22-rdf-syntax-ns#" xmlns:svg="http://www.w3.org/2000/svg" xmlns="http://www.w3.org/2000/svg" xmlns:xlink="http://www.w3.org/1999/xlink" id="svg339304" viewBox="0 0 1024 768" height="768px" width="1024px" version="1.1">
  <metadata id="metadata339310">
    <rdf:rdf>
      <cc:work rdf:about="">
        <dc:format>image/svg+xml</dc:format>
        <dc:type rdf:resource="http://purl.org/dc/dcmitype/StillImage"></dc:type>
      </cc:work>
    </rdf:rdf>
  </metadata>
  <defs id="defs339308"></defs>
  <linearGradient spreadMethod="pad" y2="30%" x2="-10%" y1="120%" x1="30%" id="3d_gradient2-logo-a3bf82c4-140b-44ad-9140-17e800f7d715">
    <stop id="stop339285" stop-opacity="1" stop-color="#ffffff" offset="0%"></stop>
    <stop id="stop339287" stop-opacity="1" stop-color="#000000" offset="100%"></stop>
  </linearGradient>
  <linearGradient gradientTransform="rotate(-30)" spreadMethod="pad" y2="30%" x2="-10%" y1="120%" x1="30%" id="3d_gradient3-logo-a3bf82c4-140b-44ad-9140-17e800f7d715">
    <stop id="stop339290" stop-opacity="1" stop-color="#ffffff" offset="0%"></stop>
    <stop id="stop339292" stop-opacity="1" stop-color="#cccccc" offset="50%"></stop>
    <stop id="stop339294" stop-opacity="1" stop-color="#000000" offset="100%"></stop>
  </linearGradient>
  <g id="logo-group">
    <image xlink:href="" id="container" x="272" y="144" width="480" height="480" style="display: none;" transform="translate(0 0)"></image>
    <g id="logo-center" transform="translate(192.4149534999999 0)">
      <image xlink:href="" id="icon_container" x="0" y="0" style="display: none;"></image>
      <g id="slogan" style="font-style:normal;font-weight:300;font-size:32px;line-height:1;font-family:'Montserrat Light Alt1';font-variant-ligatures:none;text-align:center;text-anchor:middle" transform="translate(0 0)"></g>
      <g id="title" style="font-style:normal;font-weight:300;font-size:72px;line-height:1;font-family:'Montserrat Light Alt1';font-variant-ligatures:none;text-align:center;text-anchor:middle" transform="translate(0 0)">
        <path id="path339313" style="font-style:normal;font-weight:300;font-size:72px;line-height:1;font-family:'Montserrat Light Alt1';font-variant-ligatures:none;text-align:center;text-anchor:middle" d="m 314.61987,0 h 3.6 l -0.072,-50.4 h -3.024 l -22.536,38.952 -22.536,-38.952 h -3.096 V 0 h 3.60001 v -42.984 l 21.096,36.288 h 1.79999 l 21.096,-36.432 z" stroke-width="0" stroke-linejoin="miter" stroke-miterlimit="2" fill="#ff0f00" stroke="#ff0f00" transform="translate(0 310.96000000000004) translate(50 45.31999999999999) scale(1.1) translate(-266.95587 50.4)"></path>
        <path id="path339315" style="font-style:normal;font-weight:300;font-size:72px;line-height:1;font-family:'Montserrat Light Alt1';font-variant-ligatures:none;text-align:center;text-anchor:middle" d="m 343.7135,-2.952 c 3.96,2.232 8.424,3.312 13.392,3.312 4.896,0 9.36,-1.08 13.392,-3.312 3.96,-2.16 7.056,-5.256 9.36,-9.144 2.304,-3.888 3.456,-8.208 3.456,-13.104 0,-4.824 -1.152,-9.216 -3.456,-13.104 -2.304,-3.888 -5.4,-6.912 -9.36,-9.144 -4.032,-2.16 -8.496,-3.312 -13.392,-3.312 -4.968,0 -9.432,1.152 -13.392,3.384 -4.032,2.232 -7.128,5.256 -9.432,9.144 -2.304,3.888 -3.384,8.28 -3.384,13.032 0,4.824 1.08,9.144 3.384,13.032 2.304,3.888 5.4,6.984 9.432,9.216 z m 24.84,-2.952 c -3.456,1.944 -7.272,2.88 -11.448,2.88 -4.248,0 -8.064,-0.936 -11.52,-2.88 -3.456,-1.872 -6.12,-4.536 -8.064,-7.92 -2.016,-3.384 -2.952,-7.2 -2.952,-11.376 0,-4.176 0.936,-7.92 2.952,-11.304 1.944,-3.384 4.608,-6.048 8.064,-7.992 3.456,-1.872 7.272,-2.88 11.52,-2.88 4.176,0 7.992,1.008 11.448,2.88 3.384,1.944 6.048,4.608 8.064,7.992 1.944,3.384 2.952,7.128 2.952,11.304 0,4.176 -1.008,7.992 -2.952,11.376 -2.016,3.384 -4.68,6.048 -8.064,7.92 z" stroke-width="0" stroke-linejoin="miter" stroke-miterlimit="2" fill="#fa3c04" stroke="#fa3c04" transform="translate(0 310.96000000000004) translate(120.33579299999997 44.92399999999999) scale(1.1) translate(-330.8975 50.76)"></path>
        <path id="path339317" style="font-style:normal;font-weight:300;font-size:72px;line-height:1;font-family:'Montserrat Light Alt1';font-variant-ligatures:none;text-align:center;text-anchor:middle" d="M 404.9945,-47.088 V 0 h 3.672 v -47.088 h 18.144 V -50.4 h -39.96 v 3.312 z" stroke-width="0" stroke-linejoin="miter" stroke-miterlimit="2" fill="#f56909" stroke="#f56909" transform="translate(0 310.96000000000004) translate(181.884093 45.31999999999999) scale(1.1) translate(-386.8505 50.4)"></path>
        <path id="path339319" style="font-style:normal;font-weight:300;font-size:72px;line-height:1;font-family:'Montserrat Light Alt1';font-variant-ligatures:none;text-align:center;text-anchor:middle" d="m 443.13537,-2.952 c 3.96,2.232 8.424,3.312 13.392,3.312 4.89601,0 9.36001,-1.08 13.392,-3.312 3.96,-2.16 7.056,-5.256 9.36001,-9.144 2.30399,-3.888 3.45599,-8.208 3.45599,-13.104 0,-4.824 -1.152,-9.216 -3.45599,-13.104 -2.30401,-3.888 -5.40001,-6.912 -9.36001,-9.144 -4.03199,-2.16 -8.49599,-3.312 -13.392,-3.312 -4.968,0 -9.432,1.152 -13.392,3.384 -4.03199,2.232 -7.12799,5.256 -9.432,9.144 -2.30399,3.888 -3.384,8.28 -3.384,13.032 0,4.824 1.08001,9.144 3.384,13.032 2.30401,3.888 5.40001,6.984 9.432,9.216 z m 24.84,-2.952 c -3.45599,1.944 -7.272,2.88 -11.448,2.88 -4.24799,0 -8.064,-0.936 -11.51999,-2.88 -3.45601,-1.872 -6.12,-4.536 -8.06401,-7.92 -2.016,-3.384 -2.952,-7.2 -2.952,-11.376 0,-4.176 0.936,-7.92 2.952,-11.304 1.94401,-3.384 4.608,-6.048 8.06401,-7.992 3.45599,-1.872 7.272,-2.88 11.51999,-2.88 4.176,0 7.99201,1.008 11.448,2.88 3.384,1.944 6.048,4.608 8.064,7.992 1.94401,3.384 2.952,7.128 2.952,11.304 0,4.176 -1.00799,7.992 -2.952,11.376 -2.016,3.384 -4.68,6.048 -8.064,7.92 z" stroke-width="0" stroke-linejoin="miter" stroke-miterlimit="2" fill="#f0960d" stroke="#f0960d" transform="translate(0 310.96000000000004) translate(229.69985000000003 44.92399999999999) scale(1.1) translate(-430.31937 50.76)"></path>
        <path id="path339321" style="font-style:normal;font-weight:300;font-size:72px;line-height:1;font-family:'Montserrat Light Alt1';font-variant-ligatures:none;text-align:center;text-anchor:middle" d="m 538.8155,-38.16 c -2.304,-3.816 -5.472,-6.768 -9.504,-9 -4.032,-2.16 -8.712,-3.24 -13.896,-3.24 h -19.944 v 3.312 h 19.656 c 4.608,0 8.712,0.936 12.312,2.808 3.528,1.872 6.264,4.464 8.208,7.704 1.872,3.312 2.88,7.128 2.88,11.376 0,4.32 -1.008,8.064 -2.88,11.376 -1.944,3.312 -4.68,5.904 -8.208,7.776 -3.6,1.872 -7.704,2.736 -12.312,2.736 h -15.984 V -25.2 h -3.672 V 0 h 19.944 c 5.184,0 9.864,-1.08 13.896,-3.24 4.032,-2.16 7.2,-5.112 9.504,-8.928 2.232,-3.816 3.384,-8.136 3.384,-13.032 0,-4.824 -1.152,-9.144 -3.384,-12.96 z" stroke-width="0" stroke-linejoin="miter" stroke-miterlimit="2" fill="#ecc312" stroke="#ecc312" transform="translate(0 310.96000000000004) translate(301.36719300000004 45.31999999999999) scale(1.1) translate(-495.4715 50.4)"></path>
        <path id="path339323" style="font-style:normal;font-weight:300;font-size:72px;line-height:1;font-family:'Montserrat Light Alt1';font-variant-ligatures:none;text-align:center;text-anchor:middle" d="m 581.52387,-17.64 c 3.744,-1.08 6.696,-2.952 8.712,-5.688 2.01601,-2.736 3.096,-6.048 3.096,-10.08 0,-5.256 -1.79999,-9.432 -5.4,-12.456 -3.6,-3.024 -8.568,-4.536 -14.904,-4.536 h -18.072 v 3.312 h 18.072 c 5.328,0 9.432,1.224 12.312,3.6 2.808,2.376 4.248,5.76 4.248,10.08 0,4.392 -1.44,7.776 -4.248,10.152 -2.88,2.376 -6.984,3.528 -12.312,3.528 h -18.072 V 0 h 3.67201 v -16.488 h 14.39999 c 1.44001,0 3.096,-0.072 4.896,-0.36 L 589.94787,0 h 4.176 z" stroke-width="0" stroke-linejoin="miter" stroke-miterlimit="2" fill="#f9f7f7" stroke="#f9f7f7" transform="translate(0 310.96000000000004) translate(366.8000000000001 45.31999999999999) scale(1.1) translate(-554.95587 50.4)"></path>
        <path id="path339325" style="font-style:normal;font-weight:300;font-size:72px;line-height:1;font-family:'Montserrat Light Alt1';font-variant-ligatures:none;text-align:center;text-anchor:middle" d="m 639.4625,-27.216 h -32.616 v 3.24 h 32.616 z m 0,-23.184 h -32.616 v 3.312 h 32.616 z m -32.616,47.088 V 0 h 32.616 v -3.312 z" stroke-width="0" stroke-linejoin="miter" stroke-miterlimit="2" fill="#fbfafa" stroke="#fbfafa" transform="translate(0 310.96000000000004) translate(423.87969300000015 45.31999999999999) scale(1.1) translate(-606.8465 50.4)"></path>
        <path id="path339327" style="font-style:normal;font-weight:300;font-size:72px;line-height:1;font-family:'Montserrat Light Alt1';font-variant-ligatures:none;text-align:center;text-anchor:middle" d="m 673.51287,-50.4 h -3.672 L 646.65688,0 h 3.96 l 21.024,-46.368 21.096,46.368 h 3.95999 z" stroke-width="0" stroke-linejoin="miter" stroke-miterlimit="2" fill="#fdfcfc" stroke="#fdfcfc" transform="translate(0 310.96000000000004) translate(467.67111100000017 45.31999999999999) scale(1.1) translate(-646.65688 50.4)"></path>
        <path id="path339329" style="font-style:normal;font-weight:300;font-size:72px;line-height:1;font-family:'Montserrat Light Alt1';font-variant-ligatures:none;text-align:center;text-anchor:middle" d="m 753.5105,0 h 3.6 l -0.072,-50.4 h -3.024 l -22.536,38.952 -22.536,-38.952 h -3.096 V 0 h 3.6 v -42.984 l 21.096,36.288 h 1.8 l 21.096,-36.432 z" stroke-width="0" stroke-linejoin="miter" stroke-miterlimit="2" fill="#ffffff" stroke="#ffffff" transform="translate(0 310.96000000000004) translate(532.7796930000002 45.31999999999999) scale(1.1) translate(-705.8465 50.4)"></path>
      </g>
      <image xlink:href="" id="icon" x="0" y="0" style="display: none;"></image>
    </g>
  </g>
</svg>